<svg width="152" height="20" viewBox="0 0 152 20" fill="none" xmlns="http://www.w3.org/2000/svg">
<path fill-rule="evenodd" clip-rule="evenodd" d="M35.3944 19.2158V3.42529L12.9424 10.0286C21.0534 11.739 28.6324 14.8936 35.3944 19.2158Z" fill="#E4E4E4"/>
<mask id="mask0" mask-type="alpha" maskUnits="userSpaceOnUse" x="0" y="0" width="30" height="16">
<path fill-rule="evenodd" clip-rule="evenodd" d="M0.000488281 0H29.1152V15.4136H0.000488281V0Z" fill="white"/>
</mask>
<g mask="url(#mask0)">
<path fill-rule="evenodd" clip-rule="evenodd" d="M28.6157 15.4137H29.1152V0L0.000488281 8.56315V8.57742C10.2517 8.7464 19.9504 11.184 28.6157 15.4137Z" fill="#E4E4E4"/>
</g>
<path fill-rule="evenodd" clip-rule="evenodd" d="M12.9424 10.0285C12.9783 10.0359 13.0137 10.0451 13.0497 10.0525C13.1468 10.073 13.2427 10.0959 13.3397 10.117C13.8038 10.2181 14.2662 10.3225 14.7264 10.4327C14.9051 10.4755 15.0832 10.5206 15.2619 10.5646C15.6438 10.6593 16.0251 10.757 16.4048 10.8586C16.5977 10.9094 16.7901 10.9619 16.9819 11.015C17.3575 11.1189 17.7315 11.2262 18.1043 11.3358C18.2829 11.3883 18.4622 11.4403 18.6403 11.4945C19.0707 11.6253 19.4989 11.7611 19.9254 11.8999C20.0384 11.937 20.152 11.9718 20.265 12.0089C20.8159 12.1921 21.364 12.3811 21.9086 12.5775C21.9582 12.5952 22.0079 12.6146 22.0582 12.6329C22.544 12.8093 23.0269 12.9914 23.507 13.1786C23.6458 13.2323 23.7833 13.2882 23.9209 13.343C24.3188 13.5006 24.7144 13.6616 25.1083 13.8266C25.2568 13.8888 25.4052 13.9522 25.5531 14.0155C25.9504 14.1851 26.3454 14.3586 26.7382 14.5362C26.8644 14.5927 26.9905 14.6486 27.1161 14.7063C27.5831 14.9204 28.0478 15.1396 28.5096 15.3634C28.545 15.3805 28.5804 15.3965 28.6158 15.4136H29.1148V5.27197L12.9424 10.0285Z" fill="#C8C8C8"/>
<mask id="mask1" mask-type="alpha" maskUnits="userSpaceOnUse" x="0" y="0" width="152" height="20">
<path fill-rule="evenodd" clip-rule="evenodd" d="M0 19.2157H151.11V0H0V19.2157Z" fill="white"/>
</mask>
<g mask="url(#mask1)">
<path fill-rule="evenodd" clip-rule="evenodd" d="M150.236 11.5615C150.473 11.7573 150.591 12.0245 150.591 12.3618C150.591 12.7072 150.448 12.9847 150.161 13.1942C149.874 13.4031 149.493 13.5076 149.019 13.5076C148.487 13.5076 148.06 13.3837 147.74 13.1354C147.419 12.887 147.259 12.5485 147.259 12.1192H146.745C146.745 12.476 146.837 12.7923 147.023 13.0686C147.208 13.3443 147.48 13.559 147.838 13.7125C148.196 13.8655 148.59 13.9426 149.019 13.9426C149.647 13.9426 150.151 13.7976 150.535 13.5076C150.918 13.2176 151.11 12.8328 151.11 12.3533C151.11 12.0496 151.039 11.7864 150.897 11.5632C150.755 11.34 150.543 11.1487 150.261 10.9883C149.979 10.8279 149.566 10.6732 149.019 10.5236C148.473 10.3746 148.076 10.2022 147.828 10.007C147.579 9.81116 147.456 9.55826 147.456 9.24828C147.456 8.91317 147.594 8.64201 147.869 8.43421C148.145 8.22584 148.516 8.12194 148.982 8.12194C149.461 8.12194 149.843 8.24867 150.127 8.50157C150.412 8.75447 150.554 9.08957 150.554 9.50631H151.072C151.072 9.16322 150.984 8.85266 150.809 8.5735C150.633 8.29491 150.386 8.07741 150.067 7.92156C149.747 7.76514 149.386 7.6875 148.982 7.6875C148.385 7.6875 147.895 7.83307 147.512 8.12422C147.128 8.41537 146.937 8.79386 146.937 9.25912C146.937 9.73866 147.143 10.1263 147.556 10.422C147.845 10.6309 148.306 10.8239 148.936 11.0009C149.566 11.1778 149.999 11.3645 150.236 11.5615ZM43.6235 13.8591H45.0867V7.77131H43.6235V13.8591ZM49.7468 7.77131L51.1055 12.0066L52.4602 7.77131H54.392V13.8591H52.9203V12.4377L53.0624 9.52733L51.5907 13.8591H50.6208L49.1445 9.52333L49.2866 12.4377V13.8591H47.8195V7.77131H49.7468ZM59.4667 10.66H58.5048V8.904H59.4833C59.7482 8.90685 59.9571 8.99305 60.1107 9.16318C60.2637 9.3333 60.3402 9.56051 60.3402 9.8448C60.3402 10.104 60.2654 10.3044 60.1169 10.4465C59.9674 10.5887 59.751 10.66 59.4667 10.66ZM58.5048 13.8591V11.7937H59.4416C60.1826 11.7937 60.7661 11.6156 61.1914 11.2605C61.6161 10.9049 61.829 10.4305 61.829 9.83674C61.829 9.43542 61.7309 9.07691 61.5339 8.76007C61.3375 8.4438 61.0601 8.20004 60.7021 8.0282C60.3436 7.85694 59.932 7.77131 59.4668 7.77131H57.0371V13.8591H58.5048ZM68.0991 11.2754H65.7911V12.7305H68.517V13.8591H64.3234V7.77131H68.5256V8.9045H65.7911V10.1884H68.0991V11.2754ZM73.2236 10.577H72.2953V8.90033H73.2236C73.4993 8.90033 73.7088 8.97512 73.851 9.12469C73.9931 9.27426 74.0639 9.48035 74.0639 9.74295C74.0639 10.0056 73.9937 10.2099 73.8527 10.3572C73.7117 10.5039 73.5022 10.577 73.2236 10.577ZM72.2954 11.7064H73.09L74.1644 13.8597H75.7366V13.7969L74.4653 11.3381C74.8306 11.1657 75.0989 10.9402 75.2702 10.6617C75.4415 10.3836 75.5277 10.0326 75.5277 9.60953C75.5277 9.02438 75.3239 8.57225 74.9168 8.25199C74.5098 7.93173 73.9458 7.77131 73.2236 7.77131H70.8276V13.8597H72.2954V11.7064ZM78.2272 13.8591H79.6904V7.77131H78.2272V13.8591ZM87.198 11.756V7.77131H85.7303V11.7475C85.7303 12.1242 85.6521 12.396 85.4963 12.5633C85.3404 12.7305 85.1103 12.8139 84.8066 12.8139C84.2044 12.8139 83.895 12.481 83.8784 11.8148V7.77131H82.4021V11.7851C82.4107 12.4542 82.6282 12.9811 83.0546 13.3659C83.4811 13.7507 84.0651 13.9431 84.8066 13.9431C85.297 13.9431 85.7223 13.8563 86.0814 13.6833C86.4411 13.5109 86.7174 13.2591 86.9098 12.9286C87.1021 12.5986 87.198 12.2076 87.198 11.756ZM91.754 7.77131L93.1127 12.0066L94.4674 7.77131H96.3992V13.8591H94.9275V12.4377L95.0696 9.52733L93.5979 13.8591H92.628L91.1517 9.52333L91.2938 12.4377V13.8591H89.8267V7.77131H91.754ZM106.126 13.1444L103.88 7.77131H103.199V13.8591H103.713V11.1914L103.671 8.51117L105.929 13.8591H106.327L108.592 8.49061L108.551 11.2086V13.8591H109.065V7.77131H108.379L106.126 13.1444ZM113.077 11.7143H115.519L114.298 8.39862L113.077 11.7143ZM115.682 12.1494H112.919L112.291 13.8591H111.752L114.056 7.77131H114.545L116.849 13.8591H116.314L115.682 12.1494ZM121.538 10.8868H119.962V8.2065H121.413C121.907 8.2065 122.29 8.32525 122.563 8.56273C122.836 8.79965 122.972 9.13361 122.972 9.56348C122.972 9.95453 122.842 10.2725 122.58 10.518C122.318 10.764 121.971 10.8868 121.538 10.8868ZM119.962 11.3216H121.731L123.203 13.8597H123.751V13.8049L122.229 11.2126C122.613 11.099 122.92 10.8929 123.148 10.5949C123.377 10.2969 123.491 9.9532 123.491 9.56329C123.491 8.99812 123.309 8.55798 122.943 8.24342C122.579 7.92887 122.071 7.77131 121.421 7.77131H119.444V13.8597H119.962V11.3216ZM127.976 10.8363L127.119 11.6807V13.8591H126.605V7.77131H127.119V11.0539L130.238 7.77131H130.886L128.336 10.4807L131.083 13.8591H130.455L127.976 10.8363ZM134.233 10.9408H137.081V10.5058H134.233V8.20632H137.486V7.77131H133.719V13.8591H137.507V13.4247H134.233V10.9408ZM144.518 8.20632H142.431V13.8591H141.917V8.20632H139.835V7.77131H144.518V8.20632Z" fill="#A4A5A7"/>
</g>
</svg>
