<?xml version="1.0" encoding="utf-8"?>
<!-- Generator: Adobe Illustrator 25.2.0, SVG Export Plug-In . SVG Version: 6.00 Build 0)  -->
<svg version="1.1" id="Layer_1" xmlns="http://www.w3.org/2000/svg" xmlns:xlink="http://www.w3.org/1999/xlink" x="0px" y="0px"
	 viewBox="0 0 271 200" style="enable-background:new 0 0 271 200;" xml:space="preserve">
<style type="text/css">
	.st0{fill-rule:evenodd;clip-rule:evenodd;fill:#F6C215;}
	.st1{fill-rule:evenodd;clip-rule:evenodd;fill:#FFFFFF;filter:url(#Adobe_OpacityMaskFilter);}
	.st2{mask:url(#mask0_1_);}
	.st3{fill-rule:evenodd;clip-rule:evenodd;fill:#F15F22;}
	.st4{fill-rule:evenodd;clip-rule:evenodd;fill:#FFFFFF;filter:url(#Adobe_OpacityMaskFilter_1_);}
	.st5{mask:url(#mask0_2_);}
	.st6{fill-rule:evenodd;clip-rule:evenodd;fill:#FFFFFF;filter:url(#Adobe_OpacityMaskFilter_2_);}
	.st7{mask:url(#mask1_2_);}
	.st8{fill-rule:evenodd;clip-rule:evenodd;fill:#FFFFFF;}
</style>
<g>
	<path class="st0" d="M207.83,139.27V74.73l-91.76,26.99C149.22,108.71,180.19,121.6,207.83,139.27z"/>
	<defs>
		<filter id="Adobe_OpacityMaskFilter" filterUnits="userSpaceOnUse" x="63.17" y="60.73" width="118.99" height="63">
			<feColorMatrix  type="matrix" values="1 0 0 0 0  0 1 0 0 0  0 0 1 0 0  0 0 0 1 0"/>
		</filter>
	</defs>
	<mask maskUnits="userSpaceOnUse" x="63.17" y="60.73" width="118.99" height="63" id="mask0_1_">
		<path class="st1" d="M63.17,60.73h118.99v63H63.17V60.73z"/>
	</mask>
	<g class="st2">
		<path class="st0" d="M180.12,123.73h2.04v-63l-118.99,35v0.06C105.07,96.48,144.71,106.44,180.12,123.73z"/>
	</g>
	<path class="st3" d="M116.07,101.72c0.15,0.03,0.29,0.07,0.44,0.1c0.4,0.08,0.79,0.18,1.19,0.26c1.9,0.41,3.79,0.84,5.67,1.29
		c0.73,0.18,1.46,0.36,2.19,0.54c1.56,0.39,3.12,0.79,4.67,1.2c0.79,0.21,1.57,0.42,2.36,0.64c1.54,0.42,3.06,0.86,4.59,1.31
		c0.73,0.21,1.46,0.43,2.19,0.65c1.76,0.53,3.51,1.09,5.25,1.66c0.46,0.15,0.93,0.29,1.39,0.45c2.25,0.75,4.49,1.52,6.72,2.32
		c0.2,0.07,0.41,0.15,0.61,0.23c1.99,0.72,3.96,1.47,5.92,2.23c0.57,0.22,1.13,0.45,1.69,0.67c1.63,0.64,3.24,1.3,4.85,1.98
		c0.61,0.25,1.21,0.51,1.82,0.77c1.62,0.69,3.24,1.4,4.84,2.13c0.52,0.23,1.03,0.46,1.54,0.7c1.91,0.88,3.81,1.77,5.7,2.69
		c0.14,0.07,0.29,0.14,0.43,0.21h2.04V82.28L116.07,101.72z"/>
</g>
<g>
	<path class="st0" d="M-530.2,115V90.35l-35.05,10.31C-552.59,103.33-540.76,108.25-530.2,115z"/>
	<defs>
		<filter id="Adobe_OpacityMaskFilter_1_" filterUnits="userSpaceOnUse" x="-585.46" y="85" width="45.45" height="24.06">
			<feColorMatrix  type="matrix" values="1 0 0 0 0  0 1 0 0 0  0 0 1 0 0  0 0 0 1 0"/>
		</filter>
	</defs>
	<mask maskUnits="userSpaceOnUse" x="-585.46" y="85" width="45.45" height="24.06" id="mask0_2_">
		<path class="st4" d="M-585.46,85H-540v24.06h-45.45V85z"/>
	</mask>
	<g class="st5">
		<path class="st0" d="M-540.78,109.06h0.78V85l-45.45,13.37v0.02C-569.45,98.66-554.31,102.46-540.78,109.06z"/>
	</g>
	<path class="st3" d="M-565.25,100.66c0.06,0.01,0.11,0.03,0.17,0.04c0.15,0.03,0.3,0.07,0.45,0.1c0.72,0.16,1.45,0.32,2.16,0.49
		c0.28,0.07,0.56,0.14,0.84,0.21c0.6,0.15,1.19,0.3,1.78,0.46c0.3,0.08,0.6,0.16,0.9,0.24c0.59,0.16,1.17,0.33,1.75,0.5
		c0.28,0.08,0.56,0.16,0.84,0.25c0.67,0.2,1.34,0.42,2.01,0.63c0.18,0.06,0.35,0.11,0.53,0.17c0.86,0.29,1.72,0.58,2.57,0.89
		c0.08,0.03,0.16,0.06,0.23,0.09c0.76,0.28,1.51,0.56,2.26,0.85c0.22,0.08,0.43,0.17,0.65,0.26c0.62,0.25,1.24,0.5,1.85,0.75
		c0.23,0.1,0.46,0.2,0.69,0.29c0.62,0.26,1.24,0.54,1.85,0.81c0.2,0.09,0.39,0.18,0.59,0.27c0.73,0.33,1.45,0.68,2.18,1.03
		c0.06,0.03,0.11,0.05,0.17,0.08h0.78V93.23L-565.25,100.66z"/>
	<defs>
		<filter id="Adobe_OpacityMaskFilter_2_" filterUnits="userSpaceOnUse" x="-517.35" y="97" width="167.81" height="9.77">
			<feColorMatrix  type="matrix" values="1 0 0 0 0  0 1 0 0 0  0 0 1 0 0  0 0 0 1 0"/>
		</filter>
	</defs>
	<mask maskUnits="userSpaceOnUse" x="-517.35" y="97" width="167.81" height="9.77" id="mask1_2_">
		<path class="st6" d="M-585.46,115h235.91V85h-235.91V115z"/>
	</mask>
	<g class="st7">
		<path class="st8" d="M-350.91,103.05c0.37,0.31,0.56,0.72,0.56,1.25c0,0.54-0.22,0.97-0.67,1.3c-0.45,0.33-1.04,0.49-1.78,0.49
			c-0.83,0-1.5-0.19-2-0.58c-0.5-0.39-0.75-0.92-0.75-1.59h-0.8c0,0.56,0.14,1.05,0.43,1.48c0.29,0.43,0.71,0.77,1.27,1.01
			c0.56,0.24,1.17,0.36,1.84,0.36c0.98,0,1.77-0.23,2.37-0.68c0.6-0.45,0.9-1.05,0.9-1.8c0-0.47-0.11-0.89-0.33-1.23
			c-0.22-0.35-0.55-0.65-0.99-0.9c-0.44-0.25-1.09-0.49-1.94-0.73c-0.85-0.23-1.47-0.5-1.86-0.81c-0.39-0.31-0.58-0.7-0.58-1.18
			c0-0.52,0.22-0.95,0.65-1.27c0.43-0.33,1.01-0.49,1.74-0.49c0.75,0,1.35,0.2,1.79,0.59c0.44,0.39,0.67,0.92,0.67,1.57h0.81
			c0-0.54-0.14-1.02-0.41-1.46c-0.27-0.43-0.66-0.77-1.16-1.02c-0.5-0.24-1.06-0.37-1.69-0.37c-0.93,0-1.7,0.23-2.3,0.68
			c-0.6,0.45-0.9,1.05-0.9,1.77c0,0.75,0.32,1.35,0.97,1.82c0.45,0.33,1.17,0.63,2.15,0.9
			C-351.95,102.45-351.28,102.74-350.91,103.05z M-471.14,101.51h-1.45V98.9h1.45c0.43,0,0.76,0.12,0.98,0.35
			c0.22,0.23,0.33,0.56,0.33,0.97c0,0.41-0.11,0.73-0.33,0.96C-470.38,101.4-470.71,101.51-471.14,101.51z M-472.59,103.28h1.24
			l1.68,3.36h2.45v-0.1l-1.99-3.84c0.57-0.27,0.99-0.62,1.26-1.06c0.27-0.43,0.4-0.98,0.4-1.64c0-0.91-0.32-1.62-0.95-2.12
			c-0.63-0.5-1.52-0.75-2.64-0.75h-3.74v9.51h2.29V103.28z M-479.14,102.6h-3.6v2.27h4.26v1.76h-6.55v-9.5h6.56v1.77h-4.27v2h3.6
			V102.6z M-507.79,97.13l2.12,6.61l2.11-6.61h3.02v9.5h-2.3v-2.22l0.22-4.54l-2.3,6.76h-1.51l-2.3-6.77l0.22,4.55v2.22h-2.29v-9.5
			H-507.79z M-517.35,106.64h2.28v-9.5h-2.28V106.64z M-492.62,101.64h-1.5V98.9h1.53c0.41,0,0.74,0.14,0.98,0.4
			c0.24,0.27,0.36,0.62,0.36,1.06c0,0.4-0.12,0.72-0.35,0.94C-491.84,101.53-492.17,101.64-492.62,101.64z M-494.12,106.64v-3.22
			h1.46c1.16,0,2.07-0.28,2.73-0.83c0.66-0.56,1-1.3,1-2.22c0-0.63-0.15-1.19-0.46-1.68c-0.31-0.49-0.74-0.87-1.3-1.14
			c-0.56-0.27-1.2-0.4-1.93-0.4h-3.79v9.5H-494.12z M-463.33,106.64h2.28v-9.5h-2.28V106.64z M-449.32,103.35v-6.22h-2.29v6.21
			c0,0.59-0.12,1.01-0.37,1.27c-0.24,0.26-0.6,0.39-1.08,0.39c-0.94,0-1.42-0.52-1.45-1.56v-6.31h-2.31v6.27
			c0.01,1.04,0.35,1.87,1.02,2.47c0.67,0.6,1.58,0.9,2.74,0.9c0.77,0,1.43-0.14,1.99-0.41c0.56-0.27,0.99-0.66,1.29-1.18
			C-449.47,104.67-449.32,104.06-449.32,103.35z M-442.21,97.13l2.12,6.61l2.12-6.61h3.02v9.5h-2.3v-2.22l0.22-4.54l-2.3,6.76h-1.51
			l-2.3-6.77l0.22,4.55v2.22h-2.29v-9.5H-442.21z M-419.77,105.52l-3.51-8.39h-1.06v9.5h0.8v-4.16l-0.06-4.18l3.52,8.35h0.62
			l3.54-8.38l-0.07,4.24v4.14h0.8v-9.5h-1.07L-419.77,105.52z M-408.92,103.29h3.81l-1.91-5.18L-408.92,103.29z M-404.85,103.97
			h-4.32l-0.98,2.67h-0.84l3.6-9.5h0.76l3.6,9.5h-0.83L-404.85,103.97z M-395.71,102h-2.46v-4.18h2.27c0.77,0,1.37,0.19,1.79,0.56
			c0.43,0.37,0.64,0.89,0.64,1.56c0,0.61-0.2,1.11-0.61,1.49C-394.49,101.8-395.04,102-395.71,102z M-398.17,102.67h2.76l2.3,3.96
			h0.86v-0.09l-2.38-4.05c0.6-0.18,1.08-0.5,1.44-0.96c0.36-0.47,0.54-1,0.54-1.61c0-0.88-0.29-1.57-0.86-2.06
			c-0.57-0.49-1.36-0.74-2.38-0.74h-3.09v9.51h0.81V102.67z M-385.66,101.92l-1.34,1.32v3.4h-0.8v-9.5h0.8v5.12l4.87-5.12h1.01
			l-3.98,4.23l4.29,5.27h-0.98L-385.66,101.92z M-375.89,102.08h4.45v-0.68h-4.45v-3.59h5.08v-0.68h-5.88v9.5h5.92v-0.68h-5.11
			V102.08z M-359.83,97.81h-3.26v8.83h-0.8v-8.83h-3.25v-0.68h7.31V97.81z"/>
	</g>
</g>
</svg>
