<svg width="322" height="322" viewBox="0 0 322 322" fill="none" xmlns="http://www.w3.org/2000/svg">
<circle cx="161" cy="161" r="151" fill="#888888"/>
<g opacity="0.8">
<path d="M83.0312 178.898H106.27V186H74.1367V134.812H83.0312V178.898Z" fill="white"/>
<path d="M151.691 161.742C151.691 166.758 150.824 171.164 149.09 174.961C147.355 178.734 144.871 181.641 141.637 183.68C138.426 185.695 134.723 186.703 130.527 186.703C126.379 186.703 122.676 185.695 119.418 183.68C116.184 181.641 113.676 178.746 111.895 174.996C110.137 171.246 109.246 166.922 109.223 162.023V159.141C109.223 154.148 110.102 149.742 111.859 145.922C113.641 142.102 116.137 139.184 119.348 137.168C122.582 135.129 126.285 134.109 130.457 134.109C134.629 134.109 138.32 135.117 141.531 137.133C144.766 139.125 147.262 142.008 149.02 145.781C150.777 149.531 151.668 153.902 151.691 158.895V161.742ZM142.797 159.07C142.797 153.398 141.719 149.051 139.562 146.027C137.43 143.004 134.395 141.492 130.457 141.492C126.613 141.492 123.602 143.004 121.422 146.027C119.266 149.027 118.164 153.281 118.117 158.789V161.742C118.117 167.367 119.207 171.715 121.387 174.785C123.59 177.855 126.637 179.391 130.527 179.391C134.465 179.391 137.488 177.891 139.598 174.891C141.73 171.891 142.797 167.508 142.797 161.742V159.07Z" fill="white"/>
<path d="M199.785 179.355C197.934 181.77 195.367 183.598 192.086 184.84C188.805 186.082 185.078 186.703 180.906 186.703C176.617 186.703 172.82 185.73 169.516 183.785C166.211 181.84 163.656 179.062 161.852 175.453C160.07 171.82 159.145 167.59 159.074 162.762V158.754C159.074 151.02 160.926 144.984 164.629 140.648C168.332 136.289 173.5 134.109 180.133 134.109C185.828 134.109 190.352 135.516 193.703 138.328C197.055 141.141 199.07 145.195 199.75 150.492H191.031C190.047 144.328 186.473 141.246 180.309 141.246C176.324 141.246 173.289 142.688 171.203 145.57C169.141 148.43 168.074 152.637 168.004 158.191V162.129C168.004 167.66 169.164 171.961 171.484 175.031C173.828 178.078 177.074 179.602 181.223 179.602C185.77 179.602 189.004 178.57 190.926 176.508V166.488H180.379V159.738H199.785V179.355Z" fill="white"/>
<path d="M250.41 161.742C250.41 166.758 249.543 171.164 247.809 174.961C246.074 178.734 243.59 181.641 240.355 183.68C237.145 185.695 233.441 186.703 229.246 186.703C225.098 186.703 221.395 185.695 218.137 183.68C214.902 181.641 212.395 178.746 210.613 174.996C208.855 171.246 207.965 166.922 207.941 162.023V159.141C207.941 154.148 208.82 149.742 210.578 145.922C212.359 142.102 214.855 139.184 218.066 137.168C221.301 135.129 225.004 134.109 229.176 134.109C233.348 134.109 237.039 135.117 240.25 137.133C243.484 139.125 245.98 142.008 247.738 145.781C249.496 149.531 250.387 153.902 250.41 158.895V161.742ZM241.516 159.07C241.516 153.398 240.438 149.051 238.281 146.027C236.148 143.004 233.113 141.492 229.176 141.492C225.332 141.492 222.32 143.004 220.141 146.027C217.984 149.027 216.883 153.281 216.836 158.789V161.742C216.836 167.367 217.926 171.715 220.105 174.785C222.309 177.855 225.355 179.391 229.246 179.391C233.184 179.391 236.207 177.891 238.316 174.891C240.449 171.891 241.516 167.508 241.516 161.742V159.07Z" fill="white"/>
</g>
</svg>
